<svg xmlns="http://www.w3.org/2000/svg" width="113" height="81" fill="none" viewBox="0 0 113 81"><path fill="#00C3FF" d="M54.9375 47.25H61.5V43.5H57.75V41.625H54V43.5938C52.8608 43.8251 51.8482 44.4714 51.1587 45.4074C50.4693 46.3433 50.1522 47.502 50.269 48.6586C50.3858 49.8152 50.9282 50.8871 51.7909 51.6662C52.6536 52.4454 53.775 52.8762 54.9375 52.875H56.8125C57.0611 52.875 57.2996 52.9738 57.4754 53.1496C57.6512 53.3254 57.75 53.5639 57.75 53.8125C57.75 54.0611 57.6512 54.2996 57.4754 54.4754C57.2996 54.6512 57.0611 54.75 56.8125 54.75H50.25V58.5H54V60.375H57.75V58.4063C58.8892 58.1749 59.9018 57.5286 60.5913 56.5926C61.2807 55.6567 61.5978 54.498 61.481 53.3414C61.3641 52.1848 60.8217 51.1129 59.9591 50.3338C59.0964 49.5546 57.9749 49.1238 56.8125 49.125H54.9375C54.6889 49.125 54.4504 49.0262 54.2746 48.8504C54.0988 48.6746 54 48.4361 54 48.1875C54 47.9389 54.0988 47.7004 54.2746 47.5246C54.4504 47.3488 54.6889 47.25 54.9375 47.25Z"/><path fill="#00C3FF" d="M78.375 45.375H74.5875C74.5336 43.8936 74.1763 42.4391 73.5377 41.1013C72.8992 39.7635 71.9929 38.571 70.875 37.5975V30.375C70.875 30.0268 70.778 29.6855 70.595 29.3893C70.4119 29.093 70.15 28.8537 69.8385 28.6979C69.5271 28.5422 69.1784 28.4763 68.8316 28.5076C68.4848 28.5388 68.1536 28.6661 67.875 28.875L60.8756 34.125H52.125C41.7937 34.125 34.3819 40.2019 33.4725 49.125H33.375C32.8777 49.125 32.4008 48.9275 32.0492 48.5758C31.6975 48.2242 31.5 47.7473 31.5 47.25V43.5H27.75V47.25C27.7515 48.7414 28.3446 50.1713 29.3992 51.2258C30.4537 52.2804 31.8836 52.8735 33.375 52.875H33.5063C33.7782 55.3336 34.5772 57.7047 35.8489 59.8264C37.1205 61.9481 38.8349 63.7705 40.875 65.1694V71.625C40.875 72.1223 41.0725 72.5992 41.4242 72.9508C41.7758 73.3025 42.2527 73.5 42.75 73.5H50.25C50.7473 73.5 51.2242 73.3025 51.5758 72.9508C51.9275 72.5992 52.125 72.1223 52.125 71.625V67.875H57.75V71.625C57.75 72.1223 57.9475 72.5992 58.2992 72.9508C58.6508 73.3025 59.1277 73.5 59.625 73.5H67.125C67.6223 73.5 68.0992 73.3025 68.4508 72.9508C68.8025 72.5992 69 72.1223 69 71.625V65.3194C70.3544 64.6773 71.5386 63.7254 72.4569 62.5407C73.3751 61.356 74.0016 59.9717 74.2856 58.5H78.375C78.8723 58.5 79.3492 58.3025 79.7008 57.9508C80.0525 57.5992 80.25 57.1223 80.25 56.625V47.25C80.25 46.7527 80.0525 46.2758 79.7008 45.9242C79.3492 45.5725 78.8723 45.375 78.375 45.375ZM76.5 54.75H71.1075C70.5356 59.9119 69.5625 61.2844 65.25 62.8406V69.75H61.5V64.125H48.375V69.75H44.625V62.9587C42.3673 61.8847 40.4626 60.1892 39.1343 58.0711C37.8059 55.953 37.1089 53.5001 37.125 51C37.125 41.9344 44.6587 37.875 52.125 37.875H62.1244L67.125 34.125V39.33C71.6587 42.8175 70.7119 45.3037 70.9087 49.125H76.5V54.75Z"/><g opacity=".9"><path fill="#fff" d="M18.312 9.008L12.6 26H5.712L0 9.008H5.664L9.168 20.696L12.648 9.008H18.312ZM29.9207 14.816C29.7127 14.48 29.4167 14.224 29.0327 14.048C28.6487 13.856 28.1847 13.76 27.6407 13.76C26.6167 13.76 25.8247 14.096 25.2647 14.768C24.7047 15.424 24.4247 16.328 24.4247 17.48C24.4247 18.808 24.7367 19.8 25.3607 20.456C25.9847 21.112 26.9447 21.44 28.2407 21.44C29.4727 21.44 30.4647 20.944 31.2167 19.952H26.9687V16.184H35.6327V21.512C34.8967 22.776 33.8807 23.864 32.5847 24.776C31.2887 25.672 29.6487 26.12 27.6647 26.12C25.9047 26.12 24.3687 25.76 23.0567 25.04C21.7607 24.304 20.7607 23.28 20.0567 21.968C19.3687 20.656 19.0247 19.16 19.0247 17.48C19.0247 15.8 19.3687 14.304 20.0567 12.992C20.7607 11.68 21.7607 10.664 23.0567 9.944C24.3527 9.208 25.8727 8.84 27.6167 8.84C29.8407 8.84 31.6487 9.376 33.0407 10.448C34.4487 11.52 35.2807 12.976 35.5367 14.816H29.9207ZM68.9319 23.432H63.2679L62.4279 26H56.8359L63.0519 9.008H69.1959L75.3879 26H69.7719L68.9319 23.432ZM67.6359 19.424L66.0999 14.696L64.5639 19.424H67.6359ZM92.8944 26H87.5664L81.9264 17.456V26H76.5984V9.008H81.9264L87.5664 17.696V9.008H92.8944V26ZM105.574 26L100.63 18.632V26H95.3016V9.008H100.63V16.16L105.502 9.008H111.526L105.67 17.144L111.91 26H105.574Z"/><path fill="#00C3FF" d="M53.0057 17.288C54.0297 17.528 54.8217 18.024 55.3817 18.776C55.9577 19.512 56.2457 20.368 56.2457 21.344C56.2457 22.832 55.7497 23.984 54.7577 24.8C53.7817 25.6 52.3737 26 50.5337 26H41.6297V9.008H50.2937C52.0217 9.008 53.3817 9.384 54.3737 10.136C55.3657 10.888 55.8617 11.984 55.8617 13.424C55.8617 14.416 55.5977 15.256 55.0697 15.944C54.5577 16.616 53.8697 17.064 53.0057 17.288ZM46.9577 15.632H49.0217C49.5017 15.632 49.8537 15.536 50.0777 15.344C50.3177 15.152 50.4377 14.856 50.4377 14.456C50.4377 14.04 50.3177 13.736 50.0777 13.544C49.8537 13.336 49.5017 13.232 49.0217 13.232H46.9577V15.632ZM49.3817 21.728C49.8617 21.728 50.2137 21.64 50.4377 21.464C50.6777 21.272 50.7977 20.968 50.7977 20.552C50.7977 19.736 50.3257 19.328 49.3817 19.328H46.9577V21.728H49.3817Z"/></g></svg>