<svg xmlns="http://www.w3.org/2000/svg" width="111" height="81" fill="none" viewBox="0 0 111 81"><path fill="#00C3FF" d="M54.9375 47.25H61.5V43.5H57.75V41.625H54V43.5938C52.8608 43.8251 51.8482 44.4714 51.1587 45.4074C50.4693 46.3433 50.1522 47.502 50.269 48.6586C50.3858 49.8152 50.9282 50.8871 51.7909 51.6662C52.6536 52.4454 53.775 52.8762 54.9375 52.875H56.8125C57.0611 52.875 57.2996 52.9738 57.4754 53.1496C57.6512 53.3254 57.75 53.5639 57.75 53.8125C57.75 54.0611 57.6512 54.2996 57.4754 54.4754C57.2996 54.6512 57.0611 54.75 56.8125 54.75H50.25V58.5H54V60.375H57.75V58.4063C58.8892 58.1749 59.9018 57.5286 60.5913 56.5926C61.2807 55.6567 61.5978 54.498 61.481 53.3414C61.3641 52.1848 60.8217 51.1129 59.9591 50.3338C59.0964 49.5546 57.9749 49.1238 56.8125 49.125H54.9375C54.6889 49.125 54.4504 49.0262 54.2746 48.8504C54.0988 48.6746 54 48.4361 54 48.1875C54 47.9389 54.0988 47.7004 54.2746 47.5246C54.4504 47.3488 54.6889 47.25 54.9375 47.25Z"/><path fill="#00C3FF" d="M78.375 45.375H74.5875C74.5336 43.8936 74.1763 42.4391 73.5377 41.1013C72.8992 39.7635 71.9929 38.571 70.875 37.5975V30.375C70.875 30.0268 70.778 29.6855 70.595 29.3893C70.4119 29.093 70.15 28.8537 69.8385 28.6979C69.5271 28.5422 69.1784 28.4763 68.8316 28.5076C68.4848 28.5388 68.1536 28.6661 67.875 28.875L60.8756 34.125H52.125C41.7937 34.125 34.3819 40.2019 33.4725 49.125H33.375C32.8777 49.125 32.4008 48.9275 32.0492 48.5758C31.6975 48.2242 31.5 47.7473 31.5 47.25V43.5H27.75V47.25C27.7515 48.7414 28.3446 50.1713 29.3992 51.2258C30.4537 52.2804 31.8836 52.8735 33.375 52.875H33.5063C33.7782 55.3336 34.5772 57.7047 35.8489 59.8264C37.1205 61.9481 38.8349 63.7705 40.875 65.1694V71.625C40.875 72.1223 41.0725 72.5992 41.4242 72.9508C41.7758 73.3025 42.2527 73.5 42.75 73.5H50.25C50.7473 73.5 51.2242 73.3025 51.5758 72.9508C51.9275 72.5992 52.125 72.1223 52.125 71.625V67.875H57.75V71.625C57.75 72.1223 57.9475 72.5992 58.2992 72.9508C58.6508 73.3025 59.1277 73.5 59.625 73.5H67.125C67.6223 73.5 68.0992 73.3025 68.4508 72.9508C68.8025 72.5992 69 72.1223 69 71.625V65.3194C70.3544 64.6773 71.5386 63.7254 72.4569 62.5407C73.3751 61.356 74.0016 59.9717 74.2856 58.5H78.375C78.8723 58.5 79.3492 58.3025 79.7008 57.9508C80.0525 57.5992 80.25 57.1223 80.25 56.625V47.25C80.25 46.7527 80.0525 46.2758 79.7008 45.9242C79.3492 45.5725 78.8723 45.375 78.375 45.375ZM76.5 54.75H71.1075C70.5356 59.9119 69.5625 61.2844 65.25 62.8406V69.75H61.5V64.125H48.375V69.75H44.625V62.9588C42.3673 61.8847 40.4626 60.1892 39.1343 58.0711C37.8059 55.953 37.1089 53.5001 37.125 51C37.125 41.9344 44.6588 37.875 52.125 37.875H62.1244L67.125 34.125V39.33C71.6587 42.8175 70.7119 45.3037 70.9087 49.125H76.5V54.75Z"/><g opacity=".9"><path fill="#fff" d="M18.312 9.008L12.6 26H5.712L0 9.008H5.664L9.168 20.696L12.648 9.008H18.312ZM29.9207 14.816C29.7127 14.48 29.4167 14.224 29.0327 14.048C28.6487 13.856 28.1847 13.76 27.6407 13.76C26.6167 13.76 25.8247 14.096 25.2647 14.768C24.7047 15.424 24.4247 16.328 24.4247 17.48C24.4247 18.808 24.7367 19.8 25.3607 20.456C25.9847 21.112 26.9447 21.44 28.2407 21.44C29.4727 21.44 30.4647 20.944 31.2167 19.952H26.9687V16.184H35.6327V21.512C34.8967 22.776 33.8807 23.864 32.5847 24.776C31.2887 25.672 29.6487 26.12 27.6647 26.12C25.9047 26.12 24.3687 25.76 23.0567 25.04C21.7607 24.304 20.7607 23.28 20.0567 21.968C19.3687 20.656 19.0247 19.16 19.0247 17.48C19.0247 15.8 19.3687 14.304 20.0567 12.992C20.7607 11.68 21.7607 10.664 23.0567 9.944C24.3527 9.208 25.8727 8.84 27.6167 8.84C29.8407 8.84 31.6487 9.376 33.0407 10.448C34.4487 11.52 35.2807 12.976 35.5367 14.816H29.9207ZM70.596 23.432H64.932L64.092 26H58.5L64.716 9.008H70.86L77.052 26H71.436L70.596 23.432ZM69.3 19.424L67.764 14.696L66.228 19.424H69.3ZM86.8065 26L83.6145 19.904H83.5905V26H78.2625V9.008H86.1825C87.5585 9.008 88.7345 9.256 89.7105 9.752C90.6865 10.232 91.4145 10.896 91.8945 11.744C92.3905 12.576 92.6385 13.52 92.6385 14.576C92.6385 15.712 92.3185 16.72 91.6785 17.6C91.0545 18.48 90.1505 19.112 88.9665 19.496L92.6625 26H86.8065ZM83.5905 16.352H85.7025C86.2145 16.352 86.5985 16.24 86.8545 16.016C87.1105 15.776 87.2385 15.408 87.2385 14.912C87.2385 14.464 87.1025 14.112 86.8305 13.856C86.5745 13.6 86.1985 13.472 85.7025 13.472H83.5905V16.352ZM101.421 9.008C103.197 9.008 104.749 9.368 106.077 10.088C107.421 10.808 108.453 11.808 109.173 13.088C109.893 14.368 110.253 15.824 110.253 17.456C110.253 19.072 109.893 20.528 109.173 21.824C108.453 23.12 107.421 24.144 106.077 24.896C104.749 25.632 103.197 26 101.421 26H94.3406V9.008H101.421ZM100.941 21.248C102.141 21.248 103.093 20.92 103.797 20.264C104.501 19.608 104.853 18.672 104.853 17.456C104.853 16.24 104.501 15.304 103.797 14.648C103.093 13.992 102.141 13.664 100.941 13.664H99.6686V21.248H100.941Z"/><path fill="#00C3FF" d="M41.1497 17.48C41.1497 15.8 41.4857 14.304 42.1577 12.992C42.8457 11.68 43.8217 10.664 45.0857 9.944C46.3497 9.208 47.8377 8.84 49.5497 8.84C51.0217 8.84 52.3337 9.12 53.4857 9.68C54.6537 10.224 55.5977 11 56.3177 12.008C57.0537 13.016 57.5417 14.192 57.7817 15.536H52.1657C51.9097 14.976 51.5417 14.544 51.0617 14.24C50.5977 13.92 50.0617 13.76 49.4537 13.76C48.5577 13.76 47.8457 14.096 47.3177 14.768C46.8057 15.44 46.5497 16.344 46.5497 17.48C46.5497 18.616 46.8057 19.52 47.3177 20.192C47.8457 20.864 48.5577 21.2 49.4537 21.2C50.0617 21.2 50.5977 21.048 51.0617 20.744C51.5417 20.424 51.9097 19.984 52.1657 19.424H57.7817C57.5417 20.768 57.0537 21.944 56.3177 22.952C55.5977 23.96 54.6537 24.744 53.4857 25.304C52.3337 25.848 51.0217 26.12 49.5497 26.12C47.8377 26.12 46.3497 25.76 45.0857 25.04C43.8217 24.304 42.8457 23.28 42.1577 21.968C41.4857 20.656 41.1497 19.16 41.1497 17.48Z"/></g></svg>